# xmcd CD database file
#
# Track frame offsets:
#	150
#	12738
#	26440
#	35751
#	49408
#	60215
#	71063
#	78892
#	92221
#	101837
#	110517
#	117502
#	135367
#	148583
#	161881
#	172685
#	182854
#
# Disc length: 2590 seconds
#
# Revision: 1
# Processed by: cddbd v1.5.1PL0 Copyright (c) Steve Scherf et al.
# Submitted via: CDex 1.51
#
DISCID=ec0a1c11
DTITLE=Greenhorns - Potkal klokan klokana
DYEAR=1900
DGENRE=
TTITLE0=Strihacsky nuzky
TTITLE1=Hospoda bez piva
TTITLE2=Dan, zvany "Svaty"
TTITLE3=Kuchar v honackem tabore
TTITLE4=Mala rybka
TTITLE5=Edward Kelly
TTITLE6=Takhle chodi
TTITLE7=Kde je stin gumovniku
TTITLE8=Redback pod prkynkem hajzliku
TTITLE9=Bar, co ma Linej Harry
TTITLE10=Muj bumerang se nevraci
TTITLE11=Marion Lee
TTITLE12=Po rece
TTITLE13=Mad Jack a Kakadu
TTITLE14=Carra Carra Wirra Canna
TTITLE15=Jestli ses narodil v Australii
TTITLE16=Domov medzi gumovniky
EXTD=
EXTT0=
EXTT1=
EXTT2=
EXTT3=
EXTT4=
EXTT5=
EXTT6=
EXTT7=
EXTT8=
EXTT9=
EXTT10=
EXTT11=
EXTT12=
EXTT13=
EXTT14=
EXTT15=
EXTT16=
PLAYORDER=
